<svg xmlns="http://www.w3.org/2000/svg" fill="none" viewBox="0 0 191 109">
  <path opacity=".5" d="M47.194 92.54l5.987 14.235h.075l5.911-14.234h1.377v15.307h-.927v-14.16h-.075l-5.837 14.16h-.898l-5.913-14.16h-.074v14.16h-.928V92.541h1.302zm35.352 7.663c0 4.441-2.619 8.033-7.303 8.033-4.536 0-7.304-3.443-7.304-8.033 0-4.278 2.529-8.034 7.304-8.034 4.46.074 7.303 3.443 7.303 8.034zm-7.303 7.184c3.846 0 6.376-3.13 6.376-7.199 0-3.667-2.156-7.2-6.376-7.2-3.847 0-6.377 3.056-6.377 7.2 0 3.83 2.23 7.199 6.377 7.199zm20.969-14.846c2.993 0 4.759 1.536 4.759 3.98 0 1.535-1.077 2.981-2.993 3.294l.075.075c2.155.223 3.457 1.833 3.457 3.756 0 2.757-2.155 4.277-5.223 4.277h-6.212V92.616h6.137v-.075zm0 6.961c2.305 0 3.772-1.148 3.772-3.13s-1.542-2.98-3.922-2.98h-5.149v6.125h5.299v-.015zm0 7.586c2.53 0 4.295-1.147 4.295-3.442 0-2.147-1.691-3.294-4.295-3.294h-5.299v6.736h5.299zm12.676-14.547h.928v15.308h-.928V92.541zm8.995 0h.928V107h8.681v.835h-9.683V92.541h.074zm26.508 0v.835h-9.37v6.126h8.831v.835h-8.831v6.737h9.445v.834h-10.447V92.616h10.372v-.075z" fill="#fff" stroke="#fff" stroke-width="1.219" stroke-miterlimit="10"/>
  <path d="M87.993 34.309c.225.149.54 0 .54-.224-.076-4.978-1.004-8.957-2.77-12.087-2.08-3.667-4.999-5.515-8.83-5.515-3.533 0-6.302 1.908-8.292 5.738-1.766 3.294-2.62 7.035-2.62 11.328V76.16c0 .313.39.462.54.224l4.759-4.59c.075-.075.075-.15.075-.224V36.306c0-3.83.389-7.11 1.152-9.941 1.078-3.905 2.844-5.888 5.149-5.888 2.844 0 5.613 3.98 6.151 9.942 0 .074.075.149.075.223l4.071 3.667zm15.761-18.199c0 .15.15.313.315.313 6.301.462 10.761 2.147 13.365 5.202 2.455 2.832 3.772 7.348 3.922 13.474V59.05c.075 5.514-1.078 9.867-3.458 13.086-2.155 2.906-4.759 4.442-7.917 4.442-3.068 0-5.763-1.461-7.918-4.442-2.38-3.22-3.607-7.572-3.607-13.086V.34c0-.313.314-.462.539-.223l4.685 4.59c.074.075.074.15.074.224V16.11zm12.588 21.88c0-10.865-4.071-16.827-12.213-17.9-.225 0-.39.149-.39.313v36.874c0 4.814.614 8.72 1.916 11.551 1.153 2.52 2.62 3.83 4.386 3.83 1.691 0 3.143-1.37 4.385-4.128 1.227-2.757 1.916-6.498 1.916-11.253V37.99zm68.475 33.82c-.075-.075-.075-.15-.075-.224V36.843c0-10.255-4.071-15.77-12.288-16.455-.225 0-.389.149-.389.313v50.81c0 .075 0 .15-.075.224l-4.76 4.665c-.224.223-.539.074-.539-.224v-59.38c0-.15.15-.313.315-.313h3.996c6.226 0 11.061 1.908 14.593 5.664 3.068 3.294 4.685 7.571 4.685 12.699V76.16c0 .313-.389.462-.539.224l-4.924-4.576zm-32.433-49.887c-1.991-3.666-4.834-5.514-8.382-5.514-3.846 0-6.765 2.071-8.756 6.2-1.84 3.517-2.768 7.959-2.768 13.384h.224-.224V59.41c0 4.441.928 8.257 2.768 11.476 1.991 3.667 4.835 5.515 8.382 5.515 3.847 0 6.765-2.072 8.756-6.2 1.616-3.056 2.529-6.886 2.694-11.403h.075V33.474c-.075-4.516-1.003-8.346-2.769-11.55zm-2.769 34.967c0 10.478-1.916 15.769-5.688 15.769-4.071 0-6.076-5.276-6.076-15.918V36.083h.075c0-10.478 1.915-15.77 5.687-15.77 4.071 0 6.077 5.277 6.077 15.919l-.075 20.658zM21.84 60.72l-3.922 3.354c-.075.074-.075.074-.075.149-.838 4.74-3.847 8.42-6.376 8.42-4.071 0-6.152-5.275-6.152-15.917V36.083c0-10.478 2.08-15.77 5.837-15.77 2.92 0 5.763 3.757 6.616 9.256 0 .075.075.15.075.224l4.22 3.666s.15.15.39.075c0 0 .15-.075.15-.224 0-4.367-.929-8.108-2.77-11.253-1.99-3.666-4.834-5.514-8.381-5.514-3.847 0-6.765 2.071-8.756 6.2C.93 26.186.002 30.553.002 35.755l.075 23.802c0 4.442.838 8.258 2.619 11.477 1.99 3.667 4.834 5.515 8.382 5.515 3.846 0 6.765-2.072 8.756-6.2 1.377-2.609 2.23-5.739 2.529-9.33.015-.299-.374-.537-.524-.299zm34.034-24.95c-.075-5.202-.614-9.644-2.455-13.087-1.99-4.128-5.223-6.2-8.995-6.2-3.532 0-6.301 1.833-8.382 5.515-1.766 3.13-2.694 6.811-2.769 11.089v.149c0 .223.15.313.15.313.15.074.314 0 .39 0l3.995-3.592c.075-.075.075-.075.075-.15.928-5.663 3.997-9.494 6.915-9.494 3.772 0 5.613 5.128 5.688 15.382v2.593c0 .15-.15.314-.315.314-6.076.462-10.596 2.608-13.066 5.812-2.155 2.832-3.308 7.423-3.532 13.623v2.832c0 5.515 3.607 15.605 11.06 15.605 3.069-.074 5.688-1.61 7.768-4.59 2.305-3.369 3.458-7.736 3.458-13.161l.015-22.953zM50.5 57.65c0 4.74-.54 8.42-1.692 11.089-1.152 2.608-2.454 3.905-4.07 3.905-1.617 0-2.994-1.222-4.072-3.756-1.003-2.296-1.616-5.127-1.766-8.645l.15-4.203c.389-3.756 1.302-6.886 2.619-9.032 1.766-2.758 4.76-4.815 8.456-5.515.225 0 .39.15.39.313L50.5 57.65z" fill="#000"/>
</svg>
